<svg width="1138" height="476" viewBox="0 0 1138 476" fill="none" xmlns="http://www.w3.org/2000/svg">
<path d="M463.756 375.021C448.695 429.652 398.856 475.52 319.306 475.52C232.91 475.52 155.962 413.222 155.962 306.973C155.962 200.723 230.993 140.342 312.323 140.342C409.399 140.342 469.369 200.723 469.369 302.454C469.369 315.872 468.137 330.386 467.452 332.303H249.341C251.257 367.901 283.433 393.368 320.675 393.368C355.316 393.368 374.895 376.801 383.795 352.019L463.893 374.884L463.756 375.021ZM376.675 270.141C375.443 245.907 359.013 216.743 313.556 216.743C273.165 216.743 253.037 246.591 251.121 270.141H376.675Z" fill="#19224C"></path>
<path d="M579.315 308.341L469.643 150.063H582.601L638.738 236.459L693.642 150.063H800.85L692.41 304.644C727.735 355.578 768.674 415.275 804.684 466.209H692.41L634.357 377.211C617.379 402.678 593.965 440.194 576.988 466.209H471.697L579.589 308.478L579.315 308.341Z" fill="#19224C"></path>
<path d="M1103.99 10.2689L1087.83 0L1037.86 31.7652V308.068C1037.86 344.762 1008.28 374.61 971.862 374.61C935.442 374.61 905.867 344.762 905.867 308.068C905.867 271.373 935.442 241.525 971.862 241.525H1010.2V140.616H971.862C880.263 140.616 805.779 215.784 805.779 308.068C805.779 400.351 880.263 475.519 971.862 475.519C1063.46 475.519 1137.94 400.351 1137.94 308.068V31.7652L1104.13 10.2689H1103.99Z" fill="#F62667"></path>
<circle cx="63.54" cy="410.122" r="63.54" fill="#6EADA3"></circle>
</svg>